<?xml version="1.0" encoding="UTF-8"?>
<svg xmlns="http://www.w3.org/2000/svg" xmlns:xlink="http://www.w3.org/1999/xlink" width="50px" height="50px" viewBox="0 0 50 50" version="1.1">
<g id="surface1">
<path style=" stroke:none;fill-rule:nonzero;fill:rgb(88.627452%,34.117648%,29.803923%);fill-opacity:1;" d="M 6.25 0 L 32.800781 0 L 46.875 14.019531 L 46.875 46.875 C 46.875 48.601562 45.476562 50 43.75 50 L 6.25 50 C 4.523438 50 3.125 48.601562 3.125 46.875 L 3.125 3.125 C 3.125 1.398438 4.523438 0 6.25 0 Z M 6.25 0 "/>
<path style=" stroke:none;fill-rule:nonzero;fill:rgb(70.980394%,21.176471%,16.078432%);fill-opacity:1;" d="M 46.828125 14.0625 L 35.9375 14.0625 C 34.210938 14.0625 32.8125 12.664062 32.8125 10.9375 L 32.8125 0.03125 Z M 46.828125 14.0625 "/>
<path style=" stroke:none;fill-rule:nonzero;fill:rgb(100%,100%,100%);fill-opacity:1;" d="M 35.152344 23.691406 C 35.675781 23.691406 35.933594 23.234375 35.933594 22.792969 C 35.933594 22.335938 35.664062 21.894531 35.152344 21.894531 L 32.171875 21.894531 C 31.589844 21.894531 31.265625 22.375 31.265625 22.910156 L 31.265625 30.234375 C 31.265625 30.890625 31.636719 31.25 32.140625 31.25 C 32.640625 31.25 33.011719 30.890625 33.011719 30.234375 L 33.011719 28.226562 L 34.816406 28.226562 C 35.375 28.226562 35.65625 27.765625 35.65625 27.3125 C 35.65625 26.867188 35.375 26.425781 34.816406 26.425781 L 33.011719 26.425781 L 33.011719 23.691406 C 33.011719 23.691406 35.152344 23.691406 35.152344 23.691406 Z M 25.078125 21.894531 L 22.894531 21.894531 C 22.304688 21.894531 21.882812 22.300781 21.882812 22.902344 L 21.882812 30.242188 C 21.882812 30.992188 22.488281 31.226562 22.921875 31.226562 L 25.210938 31.226562 C 27.917969 31.226562 29.707031 29.441406 29.707031 26.691406 C 29.707031 23.78125 28.023438 21.894531 25.078125 21.894531 Z M 25.179688 29.414062 L 23.851562 29.414062 L 23.851562 23.703125 L 25.050781 23.703125 C 26.863281 23.703125 27.652344 24.921875 27.652344 26.601562 C 27.652344 28.171875 26.878906 29.414062 25.179688 29.414062 Z M 17.191406 21.894531 L 15.03125 21.894531 C 14.417969 21.894531 14.078125 22.296875 14.078125 22.910156 L 14.078125 30.234375 C 14.078125 30.890625 14.46875 31.25 14.992188 31.25 C 15.519531 31.25 15.910156 30.890625 15.910156 30.234375 L 15.910156 28.097656 L 17.265625 28.097656 C 18.9375 28.097656 20.316406 26.914062 20.316406 25.007812 C 20.316406 23.144531 18.984375 21.894531 17.191406 21.894531 Z M 17.15625 26.378906 L 15.910156 26.378906 L 15.910156 23.613281 L 17.15625 23.613281 C 17.921875 23.613281 18.414062 24.214844 18.414062 24.996094 C 18.410156 25.777344 17.921875 26.378906 17.15625 26.378906 Z M 17.15625 26.378906 "/>
</g>
</svg>
